<svg width="18" height="20" viewBox="0 0 18 20" fill="none" xmlns="http://www.w3.org/2000/svg">
<path d="M15.75 0.25H2.25C1.85218 0.25 1.47064 0.408035 1.18934 0.68934C0.908035 0.970644 0.75 1.35218 0.75 1.75V18.25C0.75 18.6478 0.908035 19.0294 1.18934 19.3107C1.47064 19.592 1.85218 19.75 2.25 19.75H15.75C16.1478 19.75 16.5294 19.592 16.8107 19.3107C17.092 19.0294 17.25 18.6478 17.25 18.25V1.75C17.25 1.35218 17.092 0.970644 16.8107 0.68934C16.5294 0.408035 16.1478 0.25 15.75 0.25ZM5.25 16.75C5.0275 16.75 4.80999 16.684 4.62498 16.5604C4.43998 16.4368 4.29578 16.2611 4.21064 16.0555C4.12549 15.85 4.10321 15.6238 4.14662 15.4055C4.19002 15.1873 4.29717 14.9868 4.4545 14.8295C4.61184 14.6722 4.81229 14.565 5.03052 14.5216C5.24875 14.4782 5.47495 14.5005 5.68052 14.5856C5.88609 14.6708 6.06179 14.815 6.1854 15C6.30902 15.185 6.375 15.4025 6.375 15.625C6.375 15.9234 6.25647 16.2095 6.0455 16.4205C5.83452 16.6315 5.54837 16.75 5.25 16.75ZM5.25 13C5.0275 13 4.80999 12.934 4.62498 12.8104C4.43998 12.6868 4.29578 12.5111 4.21064 12.3055C4.12549 12.1 4.10321 11.8738 4.14662 11.6555C4.19002 11.4373 4.29717 11.2368 4.4545 11.0795C4.61184 10.9222 4.81229 10.815 5.03052 10.7716C5.24875 10.7282 5.47495 10.7505 5.68052 10.8356C5.88609 10.9208 6.06179 11.065 6.1854 11.25C6.30902 11.435 6.375 11.6525 6.375 11.875C6.375 12.1734 6.25647 12.4595 6.0455 12.6705C5.83452 12.8815 5.54837 13 5.25 13ZM9 16.75C8.7775 16.75 8.55999 16.684 8.37498 16.5604C8.18998 16.4368 8.04578 16.2611 7.96064 16.0555C7.87549 15.85 7.85321 15.6238 7.89662 15.4055C7.94002 15.1873 8.04717 14.9868 8.2045 14.8295C8.36184 14.6722 8.56229 14.565 8.78052 14.5216C8.99875 14.4782 9.22495 14.5005 9.43052 14.5856C9.63608 14.6708 9.81179 14.815 9.9354 15C10.059 15.185 10.125 15.4025 10.125 15.625C10.125 15.9234 10.0065 16.2095 9.79549 16.4205C9.58452 16.6315 9.29837 16.75 9 16.75ZM9 13C8.7775 13 8.55999 12.934 8.37498 12.8104C8.18998 12.6868 8.04578 12.5111 7.96064 12.3055C7.87549 12.1 7.85321 11.8738 7.89662 11.6555C7.94002 11.4373 8.04717 11.2368 8.2045 11.0795C8.36184 10.9222 8.56229 10.815 8.78052 10.7716C8.99875 10.7282 9.22495 10.7505 9.43052 10.8356C9.63608 10.9208 9.81179 11.065 9.9354 11.25C10.059 11.435 10.125 11.6525 10.125 11.875C10.125 12.1734 10.0065 12.4595 9.79549 12.6705C9.58452 12.8815 9.29837 13 9 13ZM12.75 16.75C12.5275 16.75 12.31 16.684 12.125 16.5604C11.94 16.4368 11.7958 16.2611 11.7106 16.0555C11.6255 15.85 11.6032 15.6238 11.6466 15.4055C11.69 15.1873 11.7972 14.9868 11.9545 14.8295C12.1118 14.6722 12.3123 14.565 12.5305 14.5216C12.7488 14.4782 12.975 14.5005 13.1805 14.5856C13.3861 14.6708 13.5618 14.815 13.6854 15C13.809 15.185 13.875 15.4025 13.875 15.625C13.875 15.9234 13.7565 16.2095 13.5455 16.4205C13.3345 16.6315 13.0484 16.75 12.75 16.75ZM12.75 13C12.5275 13 12.31 12.934 12.125 12.8104C11.94 12.6868 11.7958 12.5111 11.7106 12.3055C11.6255 12.1 11.6032 11.8738 11.6466 11.6555C11.69 11.4373 11.7972 11.2368 11.9545 11.0795C12.1118 10.9222 12.3123 10.815 12.5305 10.7716C12.7488 10.7282 12.975 10.7505 13.1805 10.8356C13.3861 10.9208 13.5618 11.065 13.6854 11.25C13.809 11.435 13.875 11.6525 13.875 11.875C13.875 12.1734 13.7565 12.4595 13.5455 12.6705C13.3345 12.8815 13.0484 13 12.75 13ZM14.25 7.75C14.25 7.94891 14.171 8.13968 14.0303 8.28033C13.8897 8.42098 13.6989 8.5 13.5 8.5H4.5C4.30109 8.5 4.11032 8.42098 3.96967 8.28033C3.82902 8.13968 3.75 7.94891 3.75 7.75V4C3.75 3.80109 3.82902 3.61032 3.96967 3.46967C4.11032 3.32902 4.30109 3.25 4.5 3.25H13.5C13.6989 3.25 13.8897 3.32902 14.0303 3.46967C14.171 3.61032 14.25 3.80109 14.25 4V7.75Z" fill="#133041"/>
</svg>
